<svg fill-rule="evenodd" clip-rule="evenodd" height="1024" width="1024" xmlns="http://www.w3.org/2000/svg" xmlns:xlink="http://www.w3.org/1999/xlink" version="1.1" x="0px" y="0px" viewBox="0 0 100 100"><g><g><g><path d="M65.636,48.505c-0.021,0.228-0.02,0.439,0.225,0.674c0.159,0.152,0.383,0.382,0.478,0.485 c0.025,0.035,0.049,0.069,0.077,0.098c0.06,0.061,0.2,0.122,0.2,0.195c-0.001,0.017-0.002,0.031,0.012,0.043 c-0.026,0.03,0.044,0.052,0.325,0.114c0.062,0.012,0.035,0.094-0.021,0.093c-0.641-0.029-0.476-0.043-0.16,0.309 c-0.1,0.042-0.032,0.082-0.164,0.238c-0.147,0.171-0.323,0.29-0.615,0.195c-0.124-0.04-0.512,0.183-0.628,0.354 c-0.416,0.613-0.698,1.312-1.474,1.621c-0.021,0.674-0.59,0.737-1.025,1.007c-0.741,0.459-1.436,0.996-1.718,1.878 c-0.049,0.149-0.249,0.389-0.378,0.427c-0.375,0.111-0.641,0.366-0.92,0.639l-2.265,2.195c-0.114,0.112-0.297,0.3-0.283,0.378 c0.116,0.661-0.433,0.815-0.882,1.079c-0.169,0.101-0.392,0.284-0.445,0.437c-0.184,0.519-0.579,0.729-1.005,0.993 c-0.249,0.155-0.469,0.453-0.645,0.714c-0.331,0.488-0.307,1.219-1.163,1.333c-0.104,0.015-0.314,0.315-0.383,0.491 c-0.268,0.697-1.183,1.046-1.301,1.818c-0.007,0.045-0.159,0.129-0.248,0.169c-0.959,0.444-1.445,1.328-1.954,2.126 c-0.358,0.561-0.665,1.115-1.264,1.431c-0.511,0.268-0.388,0.754-0.626,0.997c-0.279,0.288-0.808,0.288-1.094,0.728 c-0.085,0.129-0.127,0.278-0.176,0.419c-0.076,0.236-0.153,0.477-0.23,0.716c-0.356,1.191-0.425,2.292,0.025,3.23 c0.147,0.308,0.452,0.351,0.817,0.089c2.012-1.446,3.785-3.194,5.562-4.938c0.256-0.251,0.387-0.518,0.347-0.815 c-0.025-0.189-0.013-0.399,0.287-0.355c0.371,0.055,0.666-0.188,0.938-0.471l1.229-1.348l4.491-4.885 c2.188-2.341,4.627-4.438,6.75-6.85c0.528-0.6,0.979-1.148,1.051-1.954c0.641,0.131,1.067-0.184,1.52-0.674l0.673-0.721 l1.043-1.081L72.69,50l-2.218-2.176l-2.575-2.601c-0.191-0.189-0.437-0.418-0.647-0.47c-0.244-0.06-0.478,0.054-0.731,0.095 c-0.047-1.042-0.152-1.41-0.753-1.713c-0.703-0.354-1.271-0.719-1.534-1.494c-0.043-0.127-0.19-0.278-0.315-0.37 c-1.342-0.983-2.243-2.401-3.518-3.478c-1.428-1.205-2.712-2.604-4.072-3.902c-0.312-0.296-0.675-0.54-1.025-0.784 c-0.556-0.384-0.561-0.375-0.332-1.043l-0.012-0.085c-0.486-0.531-0.496-0.533-1.048-0.341l-0.027,0.169 c-0.004-0.029-0.015-0.062-0.009-0.085c0.009-0.031,0.031-0.054,0.048-0.081l0.283-0.746l0.003,0.013 c-0.634-0.493-1.283-0.969-1.396-1.796c-0.017-0.122-0.148-0.312-0.266-0.396c-0.556-0.394-0.989-1.025-1.706-1.136 c-0.222-0.035-0.49-0.366-0.738-0.56l-0.042-0.007c-0.442-0.16-0.354-0.734-0.657-0.846c-0.68-0.251-1.006-0.748-1.327-1.317 c-0.067-0.12-0.253-0.28-0.361-0.295c-0.518-0.073-0.802-0.357-0.99-0.866c-0.078-0.212-0.367-0.316-0.487-0.188 c-0.404,0.431-0.882,0.815-0.728,1.636c0.081,0.428,0.034,0.837,0.09,1.263c0.1,0.765,0.279,1.524,0.875,2.256 c0.238,0.293,0.499,0.64,0.586,0.955c0.274,1.001,1.045,1.85,1.485,2.793c0.144,0.309,0.345,0.516,0.675,0.643 c0.368,0.141,1.201,0.861,1.481,1.214c0.067,0.083,0.155,0.154,0.234,0.233l0.183-0.17l-0.016-0.004l-0.169,0.165 c-0.046,0.215-0.078,0.585,0.228,0.576c0.622-0.019,1.064,0.671,1.648,0.734c0.114,0.013,0.434,0.425,0.435,0.585 c0.003,0.788,0.553,1.238,1.2,1.515c0.577,0.248,1.035,0.469,1.172,1.14c0.022,0.112,0.197,0.247,0.311,0.362 c0.925,0.928,1.809,1.899,2.861,2.686c0.161,0.12,0.3,0.321,0.402,0.5c0.506,0.887,1.332,1.452,2.09,2.07 c0.235,0.192,0.641,0.185,0.826,0.388c0.211,0.23,0.237,0.602,0.396,0.897c0.095,0.178,0.273,0.354,0.442,0.486 c0.896,0.702,1.684,1.576,2.693,2.092L65.636,48.505z M51.069,70.219c0.013-0.032,0.139-0.046,0.212-0.068 c-0.002,0.043,0.014,0.096-0.009,0.128L50.808,70.9l0.044,0.105l-0.033-0.107C50.899,70.671,50.973,70.444,51.069,70.219z M47.637,26.312c0.093-0.021,0.205-0.002,0.311,0.003c-0.01,0.078,0.007,0.181-0.038,0.226c-0.039,0.038-0.145,0.007-0.222,0.007 C47.669,26.464,47.617,26.316,47.637,26.312z M50.364,69.885l0.097,0.035c-0.053,0.032-0.106,0.063-0.179,0.106 C50.319,69.962,50.342,69.923,50.364,69.885z M68.655,53.314l0.039-0.097l0.062,0.033L68.655,53.314z M49.607,73.008l0.016,0.091 l-0.094-0.003L49.607,73.008z"></path></g></g><g><g><path d="M50.548,48.505c-0.021,0.228-0.02,0.439,0.225,0.674c0.159,0.152,0.383,0.382,0.478,0.485 c0.025,0.035,0.049,0.069,0.077,0.098c0.06,0.061,0.2,0.122,0.2,0.195c-0.001,0.017-0.002,0.031,0.012,0.043 c-0.026,0.03,0.044,0.052,0.325,0.114c0.062,0.012,0.035,0.094-0.021,0.093c-0.641-0.029-0.476-0.043-0.16,0.309 c-0.1,0.042-0.032,0.082-0.164,0.238c-0.147,0.171-0.323,0.29-0.615,0.195c-0.124-0.04-0.512,0.183-0.628,0.354 c-0.416,0.613-0.698,1.312-1.474,1.621c-0.021,0.674-0.59,0.737-1.025,1.007c-0.741,0.459-1.436,0.996-1.718,1.878 c-0.049,0.149-0.249,0.389-0.378,0.427c-0.375,0.111-0.641,0.366-0.92,0.639l-2.265,2.195c-0.114,0.112-0.297,0.3-0.283,0.378 c0.116,0.661-0.433,0.815-0.882,1.079c-0.169,0.101-0.392,0.284-0.445,0.437c-0.184,0.519-0.579,0.729-1.005,0.993 c-0.249,0.155-0.469,0.453-0.645,0.714c-0.331,0.488-0.307,1.219-1.163,1.333c-0.104,0.015-0.314,0.315-0.383,0.491 c-0.268,0.697-1.183,1.046-1.301,1.818c-0.007,0.045-0.159,0.129-0.248,0.169c-0.959,0.444-1.445,1.328-1.954,2.126 c-0.358,0.561-0.665,1.115-1.264,1.431c-0.511,0.268-0.388,0.754-0.626,0.997c-0.279,0.288-0.808,0.288-1.094,0.728 c-0.085,0.129-0.127,0.278-0.176,0.419c-0.076,0.236-0.153,0.477-0.23,0.716c-0.356,1.191-0.425,2.292,0.025,3.23 c0.147,0.308,0.452,0.351,0.817,0.089c2.012-1.446,3.785-3.194,5.562-4.938c0.256-0.251,0.387-0.518,0.347-0.815 c-0.025-0.189-0.013-0.399,0.287-0.355c0.371,0.055,0.666-0.188,0.938-0.471l1.229-1.348l4.491-4.885 c2.188-2.341,4.627-4.438,6.75-6.85c0.528-0.6,0.979-1.148,1.051-1.954c0.641,0.131,1.067-0.184,1.52-0.674l0.673-0.721 l1.043-1.081L57.603,50l-2.218-2.176l-2.575-2.601c-0.191-0.189-0.437-0.418-0.647-0.47c-0.244-0.06-0.478,0.054-0.731,0.095 c-0.047-1.042-0.152-1.41-0.753-1.713c-0.703-0.354-1.271-0.719-1.534-1.494c-0.043-0.127-0.19-0.278-0.315-0.37 c-1.342-0.983-2.243-2.401-3.518-3.478c-1.428-1.205-2.712-2.604-4.072-3.902c-0.312-0.296-0.675-0.54-1.025-0.784 c-0.556-0.384-0.561-0.375-0.332-1.043l-0.012-0.085c-0.486-0.531-0.496-0.533-1.048-0.341l-0.027,0.169 c-0.004-0.029-0.015-0.062-0.009-0.085c0.009-0.031,0.031-0.054,0.048-0.081l0.283-0.746l0.003,0.013 c-0.634-0.493-1.283-0.969-1.396-1.796c-0.017-0.122-0.148-0.312-0.266-0.396c-0.556-0.394-0.989-1.025-1.706-1.136 c-0.222-0.035-0.49-0.366-0.738-0.56l-0.042-0.007c-0.442-0.16-0.354-0.734-0.657-0.846c-0.68-0.251-1.006-0.748-1.327-1.317 c-0.067-0.12-0.253-0.28-0.361-0.295c-0.518-0.073-0.802-0.357-0.99-0.866c-0.078-0.212-0.367-0.316-0.487-0.188 c-0.404,0.431-0.882,0.815-0.728,1.636c0.081,0.428,0.034,0.837,0.09,1.263c0.1,0.765,0.279,1.524,0.875,2.256 c0.238,0.293,0.499,0.64,0.586,0.955c0.274,1.001,1.045,1.85,1.485,2.793c0.144,0.309,0.345,0.516,0.675,0.643 c0.368,0.141,1.201,0.861,1.481,1.214c0.067,0.083,0.155,0.154,0.234,0.233l0.183-0.17l-0.016-0.004l-0.169,0.165 c-0.046,0.215-0.078,0.585,0.228,0.576c0.622-0.019,1.064,0.671,1.648,0.734c0.114,0.013,0.434,0.425,0.435,0.585 c0.003,0.788,0.553,1.238,1.2,1.515c0.577,0.248,1.035,0.469,1.172,1.14c0.022,0.112,0.197,0.247,0.311,0.362 c0.925,0.928,1.809,1.899,2.861,2.686c0.161,0.12,0.3,0.321,0.402,0.5c0.506,0.887,1.332,1.452,2.09,2.07 c0.235,0.192,0.641,0.185,0.826,0.388c0.211,0.23,0.237,0.602,0.396,0.897c0.095,0.178,0.273,0.354,0.442,0.486 c0.896,0.702,1.684,1.576,2.693,2.092L50.548,48.505z M35.981,70.219c0.013-0.032,0.139-0.046,0.212-0.068 c-0.002,0.043,0.014,0.096-0.009,0.128L35.72,70.9l0.044,0.105l-0.033-0.107C35.812,70.671,35.885,70.444,35.981,70.219z M32.549,26.312c0.093-0.021,0.205-0.002,0.311,0.003c-0.01,0.078,0.007,0.181-0.038,0.226c-0.039,0.038-0.145,0.007-0.222,0.007 C32.581,26.464,32.529,26.316,32.549,26.312z M35.276,69.885l0.097,0.035c-0.053,0.032-0.106,0.063-0.179,0.106 C35.231,69.962,35.254,69.923,35.276,69.885z M53.567,53.314l0.039-0.097l0.062,0.033L53.567,53.314z M34.52,73.008l0.016,0.091 l-0.094-0.003L34.52,73.008z"></path></g></g></g></svg>